<svg width="18" height="12" viewBox="0 0 18 12" fill="none" xmlns="http://www.w3.org/2000/svg">
<rect width="18" height="12" fill="#F6AE79"/>
<g clip-path="url(#clip0_0_1)">
<rect width="1440" height="4445" transform="translate(-80 -3981.28)" fill="#1E1E1E"/>
<rect width="1440" height="607" transform="translate(-80 -241.28)" fill="#1E1E1E"/>
<path d="M16.5993 0H0.976429C0.439393 0 0 0.433701 0 0.963826V6.90123C0 9.79283 1.46464 11.7206 4.88215 11.7206H12.6936C16.1111 11.7206 17.5757 9.79283 17.5757 6.90123V0.963826C17.5757 0.433701 17.1363 0 16.5993 0ZM6.06362 8.06751C6.0148 8.10606 5.96598 8.15426 5.91716 8.18317C5.85857 8.22173 5.79999 8.25064 5.7414 8.26992C5.68282 8.29884 5.62423 8.31811 5.56565 8.32775C5.4973 8.33739 5.43871 8.34703 5.37036 8.34703C5.24342 8.34703 5.11649 8.31811 4.99932 8.26992C4.87238 8.22173 4.77474 8.15426 4.6771 8.06751C4.50134 7.88438 4.39393 7.63377 4.39393 7.38317C4.39393 7.13256 4.50134 6.88196 4.6771 6.69882C4.77474 6.61207 4.87238 6.5446 4.99932 6.49641C5.17507 6.4193 5.37036 6.40002 5.56565 6.43858C5.62423 6.44822 5.68282 6.46749 5.7414 6.49641C5.79999 6.51569 5.85857 6.5446 5.91716 6.58316C5.96598 6.62171 6.0148 6.66027 6.06362 6.69882C6.23938 6.88196 6.34679 7.13256 6.34679 7.38317C6.34679 7.63377 6.23938 7.88438 6.06362 8.06751ZM6.06362 4.69398C5.8781 4.86748 5.62423 4.9735 5.37036 4.9735C5.11649 4.9735 4.86262 4.86748 4.6771 4.69398C4.50134 4.51085 4.39393 4.26024 4.39393 4.00964C4.39393 3.75903 4.50134 3.50843 4.6771 3.32529C4.9505 3.05541 5.38012 2.96866 5.7414 3.12288C5.86834 3.17108 5.97575 3.23855 6.06362 3.32529C6.23938 3.50843 6.34679 3.75903 6.34679 4.00964C6.34679 4.26024 6.23938 4.51085 6.06362 4.69398ZM9.48113 8.06751C9.2956 8.24101 9.04173 8.34703 8.78786 8.34703C8.53399 8.34703 8.28012 8.24101 8.0946 8.06751C7.91884 7.88438 7.81143 7.63377 7.81143 7.38317C7.81143 7.13256 7.91884 6.88196 8.0946 6.69882C8.45588 6.34219 9.11985 6.34219 9.48113 6.69882C9.65688 6.88196 9.76429 7.13256 9.76429 7.38317C9.76429 7.63377 9.65688 7.88438 9.48113 8.06751ZM9.48113 4.69398C9.43231 4.73254 9.38348 4.77109 9.33466 4.80965C9.27608 4.8482 9.21749 4.87712 9.15891 4.89639C9.10032 4.92531 9.04173 4.94459 8.98315 4.95423C8.9148 4.96387 8.85621 4.9735 8.78786 4.9735C8.53399 4.9735 8.28012 4.86748 8.0946 4.69398C7.91884 4.51085 7.81143 4.26024 7.81143 4.00964C7.81143 3.75903 7.91884 3.50843 8.0946 3.32529C8.18248 3.23855 8.28988 3.17108 8.41682 3.12288C8.7781 2.96866 9.20773 3.05541 9.48113 3.32529C9.65688 3.50843 9.76429 3.75903 9.76429 4.00964C9.76429 4.26024 9.65688 4.51085 9.48113 4.69398ZM12.8986 8.06751C12.7131 8.24101 12.4592 8.34703 12.2054 8.34703C11.9515 8.34703 11.6976 8.24101 11.5121 8.06751C11.3363 7.88438 11.2289 7.63377 11.2289 7.38317C11.2289 7.13256 11.3363 6.88196 11.5121 6.69882C11.8734 6.34219 12.5373 6.34219 12.8986 6.69882C13.0744 6.88196 13.1818 7.13256 13.1818 7.38317C13.1818 7.63377 13.0744 7.88438 12.8986 8.06751ZM12.8986 4.69398C12.8498 4.73254 12.801 4.77109 12.7522 4.80965C12.6936 4.8482 12.635 4.87712 12.5764 4.89639C12.5178 4.92531 12.4592 4.94459 12.4006 4.95423C12.3323 4.96387 12.2639 4.9735 12.2054 4.9735C11.9515 4.9735 11.6976 4.86748 11.5121 4.69398C11.3363 4.51085 11.2289 4.26024 11.2289 4.00964C11.2289 3.75903 11.3363 3.50843 11.5121 3.32529C11.6097 3.23855 11.7074 3.17108 11.8343 3.12288C12.0101 3.04577 12.2054 3.0265 12.4006 3.06505C12.4592 3.07469 12.5178 3.09397 12.5764 3.12288C12.635 3.14216 12.6936 3.17108 12.7522 3.20963L12.8986 3.32529C13.0744 3.50843 13.1818 3.75903 13.1818 4.00964C13.1818 4.26024 13.0744 4.51085 12.8986 4.69398Z" fill="#F4F2F1"/>
</g>
<defs>
<clipPath id="clip0_0_1">
<rect width="1440" height="4445" fill="white" transform="translate(-80 -3981.28)"/>
</clipPath>
</defs>
</svg>
