<svg width="13" height="13" viewBox="0 0 13 13" fill="none" xmlns="http://www.w3.org/2000/svg">
<rect width="13" height="13" fill="#F6AE79"/>
<g clip-path="url(#clip0_0_1)">
<rect width="1440" height="4445" transform="translate(-1161.09 -4395.01)" fill="#1E1E1E"/>
<rect width="1440" height="98" transform="translate(-1161.09 -48.0073)" fill="#FF3002"/>
<path d="M18.2837 6.99268C18.2837 13.6201 12.8264 18.9927 6.0945 18.9927C-0.637424 18.9927 -6.09473 13.6201 -6.09473 6.99268C-6.09473 0.365259 -0.637424 -5.00732 6.0945 -5.00732C12.8264 -5.00732 18.2837 0.365259 18.2837 6.99268Z" fill="#1E1E1E"/>
<path d="M7.94838 0.775951C7.97575 0.677591 8.04253 0.593714 8.13404 0.542738C8.22556 0.491761 8.33434 0.477851 8.4365 0.504064C9.40532 0.755009 10.2887 1.24677 10.998 1.93008C11.7074 2.6134 12.218 3.46427 12.4785 4.39746C12.4923 4.44629 12.496 4.49727 12.4894 4.54748C12.4827 4.59768 12.4658 4.64612 12.4396 4.69001C12.4134 4.7339 12.3785 4.77238 12.3368 4.80322C12.2952 4.83407 12.2476 4.85667 12.1968 4.86974C12.1461 4.88281 12.0931 4.88608 12.041 4.87936C11.9889 4.87265 11.9387 4.85609 11.8933 4.83063C11.8479 4.80516 11.8082 4.7713 11.7764 4.73099C11.7446 4.69068 11.7214 4.64472 11.7081 4.59575C11.484 3.79289 11.0448 3.06085 10.4345 2.47297C9.82414 1.8851 9.06416 1.46202 8.23065 1.24612C8.18006 1.2331 8.13263 1.21062 8.09107 1.17994C8.04951 1.14927 8.01462 1.11101 7.98841 1.06735C7.9622 1.02369 7.94517 0.975485 7.93831 0.925486C7.93144 0.875487 7.93486 0.824675 7.94838 0.775951ZM7.6802 3.22492C8.15326 3.34742 8.58459 3.58753 8.93097 3.92117C9.27736 4.25482 9.52663 4.67029 9.65381 5.12595C9.6811 5.22436 9.74787 5.30828 9.83941 5.35927C9.93095 5.41026 10.0398 5.42413 10.1419 5.39784C10.2441 5.37155 10.3312 5.30724 10.3842 5.21906C10.4371 5.13089 10.4515 5.02607 10.4242 4.92767C10.2606 4.34167 9.94003 3.80737 9.49457 3.3783C9.04912 2.94922 8.49442 2.64043 7.88605 2.48286C7.83547 2.46984 7.78272 2.46655 7.73081 2.47316C7.67891 2.47978 7.62886 2.49618 7.58353 2.52143C7.49199 2.57242 7.42523 2.65635 7.39793 2.75475C7.37064 2.85315 7.38504 2.95797 7.43797 3.04614C7.49091 3.13432 7.57804 3.19862 7.6802 3.22492ZM12.9952 9.50463C12.8838 10.3385 12.4611 11.1048 11.806 11.6604C11.151 12.216 10.3083 12.5229 9.43546 12.5237C4.23273 12.5237 0 8.44665 0 3.43523C0.000888726 2.59451 0.319486 1.78284 0.896279 1.15186C1.47307 0.520867 2.26861 0.113709 3.1343 0.00643593C3.33415 -0.0167362 3.53642 0.0230315 3.71086 0.119792C3.8853 0.216552 4.02253 0.365104 4.10203 0.543234L5.43702 3.54359C5.49763 3.67938 5.52235 3.82753 5.50897 3.97477C5.49559 4.12202 5.44452 4.26377 5.36034 4.38735L4.25493 6.01426C4.24243 6.03176 4.23484 6.05208 4.2329 6.07324C4.23095 6.0944 4.23472 6.11569 4.24383 6.13503C4.75676 7.14293 5.60517 7.95645 6.65386 8.44595C6.67406 8.45465 6.69626 8.45815 6.71828 8.45611C6.74031 8.45407 6.76141 8.44655 6.77951 8.4343L8.44301 7.36582C8.57166 7.28286 8.71983 7.23225 8.874 7.21862C9.02817 7.20498 9.18344 7.22874 9.32563 7.28774L12.4378 8.57255C12.6227 8.64909 12.777 8.78126 12.8775 8.94928C12.9779 9.11729 13.0192 9.31213 12.9952 9.50463ZM12.204 9.40837C12.207 9.38125 12.2008 9.35394 12.1863 9.33053C12.1718 9.30711 12.1498 9.28883 12.1236 9.27844L9.01153 7.9937C8.9912 7.98532 8.96903 7.98195 8.94701 7.9839C8.92499 7.98584 8.90382 7.99304 8.88541 8.00483L7.22192 9.07337C7.08829 9.15949 6.93373 9.21069 6.77338 9.22195C6.61303 9.23322 6.45239 9.20416 6.30721 9.13763C5.0976 8.573 4.119 7.63463 3.52733 6.47208C3.45797 6.33306 3.42709 6.17913 3.43768 6.02523C3.44828 5.87132 3.49999 5.72267 3.5878 5.59369L4.69315 3.96672C4.70519 3.94905 4.71249 3.92878 4.7144 3.90773C4.71632 3.88667 4.71278 3.86549 4.70411 3.84607L3.36919 0.845843C3.35928 0.822986 3.34267 0.803405 3.3214 0.789493C3.30012 0.775581 3.2751 0.767939 3.24939 0.767502C3.24434 0.767514 3.23931 0.767835 3.2343 0.768462C2.56111 0.851965 1.9425 1.16868 1.49403 1.65944C1.04557 2.1502 0.797923 2.78144 0.797363 3.43523C0.799948 5.64119 1.71086 7.75609 3.33026 9.31594C4.94966 10.8758 7.14529 11.7532 9.43546 11.7557C10.1142 11.7552 10.7696 11.5166 11.279 11.0846C11.7885 10.6527 12.1173 10.0568 12.204 9.40837Z" fill="white"/>
</g>
<defs>
<clipPath id="clip0_0_1">
<rect width="1440" height="4445" fill="white" transform="translate(-1161.09 -4395.01)"/>
</clipPath>
</defs>
</svg>
